<?xml version="1.0" encoding="utf-8"?>
<!-- Generator: Adobe Illustrator 26.0.0, SVG Export Plug-In . SVG Version: 6.00 Build 0)  -->
<svg version="1.1" id="Layer_1" xmlns="http://www.w3.org/2000/svg" xmlns:xlink="http://www.w3.org/1999/xlink" x="0px" y="0px"
	 viewBox="0 0 560 200" style="enable-background:new 0 0 560 200;" xml:space="preserve">
<style type="text/css">
	.st0{fill:#5499C7;stroke:#000000;stroke-miterlimit:10;}
	.st1{fill:#42ADE2;}
	.st2{fill:#FFDD67;}
	.st3{fill:#EBA352;}
	.st4{fill-rule:evenodd;clip-rule:evenodd;fill:#FFD170;}
	.st5{fill-rule:evenodd;clip-rule:evenodd;fill:#FF4085;}
	.st6{fill-rule:evenodd;clip-rule:evenodd;fill:#63B6E6;}
	.st7{fill-rule:evenodd;clip-rule:evenodd;fill:#9729CC;}
	.st8{fill-rule:evenodd;clip-rule:evenodd;fill:#FFFFFF;}
	.st9{fill-rule:evenodd;clip-rule:evenodd;fill:#FFF080;}
	.st10{fill-rule:evenodd;clip-rule:evenodd;fill:#84E060;}
</style>
<rect y="0" class="st0" width="560" height="200"/>
<g>
	<path d="M56.46,54.54h5.02v13.68h16.6V54.54h5.05v32.37h-5.05V72.58h-16.6v14.33h-5.02V54.54z"/>
	<path d="M89.15,58.86c-0.55-0.55-0.83-1.2-0.83-1.96c0-0.79,0.28-1.46,0.83-2c0.55-0.54,1.22-0.81,2-0.81
		c0.79,0,1.46,0.27,2.01,0.81c0.55,0.54,0.82,1.2,0.82,2c0,0.76-0.27,1.42-0.82,1.96c-0.55,0.55-1.22,0.82-2.01,0.82
		C90.36,59.68,89.7,59.41,89.15,58.86z M88.7,63.32h4.89v23.6H88.7V63.32z"/>
	<g>
		<path class="st1" d="M117,82.66c-0.34-0.07-0.67-0.17-1-0.28c-0.32-0.11-0.64-0.24-0.96-0.39c-0.63-0.29-1.23-0.65-1.8-1.06
			c-1.13-0.82-2.11-1.9-2.82-3.13c-0.71-1.24-1.13-2.63-1.23-4.02c-0.05-0.7-0.02-1.39,0.08-2.08c0.05-0.34,0.12-0.68,0.21-1.01
			c0.09-0.33,0.19-0.66,0.32-0.97l0.09,1.01c0.03,0.33,0.07,0.66,0.11,0.98c0.09,0.65,0.2,1.28,0.35,1.9
			c0.3,1.23,0.75,2.4,1.37,3.48c0.61,1.08,1.4,2.07,2.29,2.99c0.45,0.46,0.93,0.9,1.43,1.33c0.25,0.21,0.51,0.42,0.77,0.64
			L117,82.66z"/>
		<path class="st1" d="M116.8,85.27c-0.25,0.11-0.5,0.2-0.76,0.27c-0.25,0.07-0.52,0.13-0.79,0.17c-0.53,0.09-1.07,0.11-1.62,0.09
			c-1.09-0.05-2.19-0.35-3.17-0.89c-0.98-0.53-1.83-1.3-2.45-2.2c-0.31-0.45-0.56-0.93-0.76-1.42c-0.09-0.25-0.17-0.5-0.24-0.76
			c-0.06-0.26-0.11-0.52-0.13-0.78c0.18,0.2,0.35,0.4,0.52,0.59c0.17,0.19,0.33,0.38,0.51,0.56c0.34,0.37,0.68,0.71,1.03,1.04
			c0.7,0.64,1.45,1.19,2.27,1.63c0.81,0.44,1.69,0.78,2.62,1.04c0.47,0.13,0.94,0.25,1.44,0.35c0.25,0.05,0.5,0.1,0.75,0.15
			C116.28,85.16,116.53,85.21,116.8,85.27z"/>
		<path class="st1" d="M132.98,50.39c0.35,0.09,0.68,0.2,1.01,0.34c0.33,0.13,0.65,0.28,0.96,0.44c0.63,0.33,1.23,0.72,1.79,1.16
			c1.12,0.89,2.07,2.02,2.73,3.3c0.66,1.28,1.01,2.7,1.03,4.1c0.01,0.7-0.06,1.4-0.2,2.08c-0.07,0.34-0.16,0.67-0.27,1
			c-0.11,0.33-0.23,0.65-0.38,0.96l-0.04-1.01c-0.02-0.33-0.03-0.67-0.06-0.99c-0.05-0.65-0.13-1.29-0.25-1.92
			c-0.24-1.25-0.63-2.45-1.21-3.56c-0.57-1.12-1.31-2.15-2.18-3.12c-0.44-0.48-0.9-0.95-1.4-1.41c-0.24-0.23-0.5-0.45-0.76-0.68
			L132.98,50.39z"/>
		<path class="st1" d="M139.28,50.06c0.25,0.07,0.5,0.16,0.74,0.27c0.24,0.1,0.47,0.23,0.7,0.36c0.46,0.27,0.88,0.58,1.27,0.94
			c0.78,0.72,1.42,1.61,1.81,2.61c0.4,1,0.54,2.08,0.42,3.13c-0.06,0.52-0.18,1.03-0.36,1.51c-0.09,0.24-0.19,0.48-0.31,0.7
			c-0.12,0.23-0.25,0.45-0.41,0.66c-0.01-0.26-0.01-0.51-0.01-0.75c0-0.25,0-0.49-0.02-0.73c-0.02-0.48-0.05-0.94-0.1-1.4
			c-0.11-0.91-0.32-1.77-0.64-2.6c-0.32-0.83-0.77-1.62-1.29-2.39c-0.26-0.39-0.55-0.77-0.85-1.15c-0.15-0.19-0.31-0.38-0.47-0.57
			C139.6,50.46,139.44,50.26,139.28,50.06z"/>
		<path class="st2" d="M112.64,60.75c-1.41,0.67-1.95,2.35-1.27,3.78l9.05,18.91l5.01-2.39l-9.05-18.91
			C115.7,60.71,114.05,60.08,112.64,60.75z"/>
		<path class="st2" d="M136.43,75.79l5.34-2.55l-10.32-21.57c-0.69-1.44-2.46-2.08-3.93-1.38l-0.02,0.01
			c-1.47,0.7-2.09,2.48-1.37,3.96L136.43,75.79z"/>
		<path class="st3" d="M127.51,50.3l-0.02,0.01c-0.16,0.08-0.31,0.17-0.44,0.27c1.35-0.37,2.82,0.27,3.44,1.56l10.32,21.56
			l0.95-0.45l-10.32-21.57C130.75,50.24,128.98,49.6,127.51,50.3z"/>
		<path class="st2" d="M125.43,81.05l5.5-2.63l-10.53-22c-0.74-1.54-2.56-2.2-4.08-1.47l-0.01,0c-1.52,0.72-2.15,2.56-1.41,4.09
			L125.43,81.05z"/>
		<path class="st3" d="M116.32,54.94L116.32,54.94c-0.17,0.08-0.32,0.18-0.46,0.28c1.4-0.39,2.93,0.27,3.58,1.65L126,70.56
			l1.61,0.93l-7.21-15.08C119.66,54.88,117.84,54.22,116.32,54.94z"/>
		<path class="st2" d="M130.07,76.63l5.5-2.63L125.04,52c-0.73-1.54-2.56-2.2-4.07-1.47l-0.01,0c-1.52,0.72-2.15,2.56-1.42,4.09
			L130.07,76.63z"/>
		<path class="st3" d="M120.97,50.53L120.97,50.53c-0.17,0.08-0.32,0.18-0.46,0.28c1.4-0.39,2.92,0.27,3.58,1.65l7.41,15.48
			l1.61,0.93L125.04,52C124.31,50.47,122.48,49.81,120.97,50.53z"/>
		<path class="st3" d="M112.64,60.75c-0.16,0.08-0.31,0.17-0.45,0.27c1.28-0.33,2.64,0.31,3.24,1.57l5.38,11.24l1.61,0.93
			l-6.04-12.62C115.7,60.71,114.05,60.08,112.64,60.75z"/>
		<path class="st2" d="M149.07,58.65c-1.95-1.49-5.13,0.15-6.69,5.34c-1.09,3.62-1.2,4.65-3.51,5.74l-1.27-2.65
			c0,0-20.36,9.83-19.59,11.44c0,0,2.46,7.59,6.59,11.14c6.15,5.28,20.57-0.38,21.22-14.04C146.2,67.56,151.2,60.29,149.07,58.65z"
			/>
		<path class="st3" d="M149.07,58.65c-0.37-0.28-0.78-0.45-1.22-0.51c0.09,0.05,0.18,0.11,0.27,0.18c2.13,1.64-0.06,5.47-1.31,8.9
			c-1,2.76-1.83,5.54-1.7,8.26c0.58,11.84-11.35,17.53-18.55,15.4c7.03,2.98,20.1-2.69,19.5-15.07c-0.13-2.72,0.66-5.36,1.7-8.26
			C148.99,64.11,151.2,60.29,149.07,58.65z"/>
		<path class="st3" d="M139.55,69.37c-4.43,0.49-11.01,6.86-6.4,13.85c-3.35-7.01,2.16-11.79,5.66-13.46
			C139.22,69.56,139.55,69.37,139.55,69.37z"/>
	</g>
	<path d="M152.13,92.56c1.01-2.71,2.25-7.63,2.76-10.98l4.5-0.46c-1.06,3.91-3.08,9.01-4.37,11.17L152.13,92.56z"/>
	<path d="M173.63,54.54h5.02v32.37h-5.02V54.54z"/>
	<path d="M185.29,54.54h4.85l-3.28,11.49h-3.43L185.29,54.54z"/>
	<path d="M192.56,63.32h4.89v3.66h0.09c0.51-1.24,1.34-2.24,2.49-2.98c1.15-0.75,2.5-1.12,4.04-1.12c1.08,0,2.05,0.18,2.93,0.54
		c0.87,0.36,1.63,0.89,2.25,1.58c0.63,0.7,1.09,1.54,1.39,2.52h0.11c0.4-0.96,0.97-1.78,1.69-2.48c0.72-0.7,1.57-1.23,2.53-1.6
		c0.96-0.37,2.01-0.56,3.13-0.56c1.55,0,2.91,0.33,4.06,0.98c1.15,0.65,2.05,1.56,2.69,2.73c0.64,1.17,0.96,2.53,0.96,4.11v16.24
		h-4.89V71.86c0-1.53-0.39-2.71-1.17-3.56c-0.78-0.84-1.89-1.27-3.34-1.27c-0.96,0-1.8,0.22-2.52,0.65
		c-0.73,0.43-1.29,1.04-1.7,1.82c-0.41,0.78-0.62,1.66-0.62,2.65v14.76h-4.78V71.5c0-1.38-0.4-2.46-1.2-3.26
		c-0.8-0.8-1.89-1.2-3.26-1.2c-0.94,0-1.78,0.23-2.52,0.68c-0.74,0.46-1.32,1.08-1.74,1.87c-0.42,0.79-0.63,1.7-0.63,2.74v14.58
		h-4.89V63.32z"/>
	<path d="M56.17,109.67h5.92L79.68,135L74,130.71h2.85v-21.04h6.75v32.37h-5.88L60.1,116.58l5.68,4.28h-2.85v21.18h-6.75V109.67z"/>
	<path d="M89.34,113.9c-0.68-0.68-1.02-1.48-1.02-2.41c0-0.94,0.34-1.75,1.02-2.41c0.68-0.66,1.51-1,2.5-1s1.82,0.33,2.49,1
		c0.67,0.67,1.01,1.47,1.01,2.41c0,0.93-0.34,1.73-1.01,2.41c-0.67,0.68-1.5,1.02-2.49,1.02S90.02,114.58,89.34,113.9z M88.54,118
		h6.57v24.05h-6.57V118z"/>
	<path d="M99.69,109.67h6.57v32.37h-6.57V109.67z M105.45,127.62h0.94l8.12-9.62h7.42l-11.1,12.65h-1.46l-3.93,4.33V127.62z
		 M107.41,131.43l4.15-5l10.83,15.61h-7.56L107.41,131.43z"/>
	<path d="M127.8,141.04c-1.78-0.99-3.16-2.43-4.14-4.31c-0.98-1.88-1.47-4.12-1.47-6.72v-0.04c0-2.59,0.5-4.81,1.49-6.67
		c0.99-1.86,2.38-3.29,4.16-4.3c1.78-1,3.87-1.5,6.26-1.5c2.41,0,4.5,0.5,6.29,1.49c1.79,1,3.17,2.42,4.16,4.28
		c0.99,1.86,1.48,4.09,1.48,6.7v0.04c0,2.62-0.49,4.86-1.47,6.73c-0.98,1.87-2.36,3.3-4.14,4.3c-1.78,1-3.88,1.49-6.3,1.49
		C131.68,142.54,129.58,142.04,127.8,141.04z M136.9,136.54c0.78-0.58,1.38-1.41,1.81-2.51c0.43-1.1,0.64-2.43,0.64-4v-0.04
		c0-1.54-0.22-2.86-0.65-3.96c-0.43-1.1-1.04-1.94-1.83-2.51c-0.79-0.58-1.71-0.86-2.77-0.86c-1.05,0-1.96,0.29-2.75,0.87
		c-0.79,0.58-1.39,1.42-1.83,2.51c-0.43,1.09-0.65,2.41-0.65,3.95v0.04c0,1.57,0.21,2.9,0.64,4s1.04,1.94,1.83,2.51
		c0.79,0.58,1.73,0.86,2.8,0.86C135.21,137.4,136.13,137.11,136.9,136.54z"/>
	<path d="M149.56,109.67h6.55v32.37h-6.55V109.67z"/>
	<path d="M163.45,141.49c-1.22-0.62-2.17-1.48-2.85-2.58c-0.68-1.1-1.02-2.35-1.02-3.76v-0.04c0-2.18,0.82-3.9,2.46-5.15
		c1.64-1.25,3.94-1.97,6.92-2.16l9.38-0.58v4.08l-8.39,0.56c-1.26,0.08-2.21,0.37-2.87,0.87c-0.66,0.51-0.99,1.19-0.99,2.04v0.04
		c0,0.88,0.34,1.57,1.01,2.07c0.67,0.5,1.58,0.75,2.71,0.75c0.97,0,1.84-0.19,2.61-0.57c0.77-0.38,1.38-0.9,1.82-1.57
		c0.44-0.66,0.66-1.41,0.66-2.23v-7.31c0-1.06-0.34-1.9-1.01-2.51c-0.67-0.61-1.65-0.92-2.94-0.92c-1.23,0-2.2,0.25-2.92,0.75
		c-0.72,0.5-1.16,1.14-1.32,1.92l-0.04,0.2h-6.01l0.02-0.27c0.13-1.48,0.63-2.8,1.49-3.95c0.86-1.15,2.06-2.05,3.59-2.7
		c1.53-0.65,3.35-0.98,5.46-0.98c2.08,0,3.88,0.33,5.41,1c1.53,0.67,2.71,1.6,3.56,2.82c0.84,1.21,1.27,2.62,1.27,4.24v16.49h-6.55
		v-3.57h-0.13c-0.46,0.81-1.05,1.51-1.75,2.11c-0.7,0.6-1.51,1.05-2.41,1.37c-0.9,0.31-1.88,0.47-2.93,0.47
		C166.08,142.42,164.67,142.11,163.45,141.49z"/>
	<path d="M203.06,115.26h-9.38v-5.59h25.53v5.59h-9.38v26.78h-6.77V115.26z"/>
	<path d="M219.36,118h6.55v4.19h0.13c0.36-1.48,1.01-2.63,1.95-3.45c0.94-0.82,2.12-1.23,3.52-1.23c0.36,0,0.7,0.02,1.03,0.07
		c0.33,0.04,0.61,0.11,0.85,0.18v5.79c-0.27-0.12-0.61-0.21-1.03-0.28c-0.42-0.07-0.87-0.1-1.35-0.1c-1.08,0-2,0.21-2.76,0.63
		c-0.76,0.42-1.35,1.03-1.75,1.84c-0.4,0.81-0.61,1.79-0.61,2.96v13.46h-6.55V118z"/>
	<path d="M238.44,141.49c-1.22-0.62-2.17-1.48-2.85-2.58c-0.68-1.1-1.02-2.35-1.02-3.76v-0.04c0-2.18,0.82-3.9,2.46-5.15
		c1.64-1.25,3.94-1.97,6.92-2.16l9.38-0.58v4.08l-8.39,0.56c-1.26,0.08-2.21,0.37-2.87,0.87c-0.66,0.51-0.99,1.19-0.99,2.04v0.04
		c0,0.88,0.34,1.57,1.01,2.07c0.67,0.5,1.58,0.75,2.71,0.75c0.97,0,1.84-0.19,2.61-0.57c0.77-0.38,1.38-0.9,1.82-1.57
		c0.44-0.66,0.66-1.41,0.66-2.23v-7.31c0-1.06-0.34-1.9-1.01-2.51c-0.67-0.61-1.65-0.92-2.94-0.92c-1.23,0-2.2,0.25-2.92,0.75
		c-0.72,0.5-1.16,1.14-1.32,1.92l-0.04,0.2h-6.01l0.02-0.27c0.13-1.48,0.63-2.8,1.49-3.95c0.86-1.15,2.06-2.05,3.59-2.7
		c1.53-0.65,3.35-0.98,5.46-0.98c2.08,0,3.88,0.33,5.41,1c1.53,0.67,2.71,1.6,3.56,2.82c0.84,1.21,1.27,2.62,1.27,4.24v16.49h-6.55
		v-3.57h-0.13c-0.46,0.81-1.05,1.51-1.75,2.11c-0.7,0.6-1.51,1.05-2.41,1.37c-0.9,0.31-1.88,0.47-2.93,0.47
		C241.07,142.42,239.66,142.11,238.44,141.49z"/>
	<path d="M257.73,149.96c-0.35-0.02-0.62-0.04-0.82-0.07v-4.94c0.12,0.01,0.25,0.03,0.39,0.03c0.14,0.01,0.29,0.01,0.44,0.01
		c1.08,0,1.85-0.2,2.31-0.59c0.46-0.4,0.7-1.08,0.7-2.05V118h6.57v24.54c0,2.44-0.73,4.29-2.19,5.55c-1.46,1.26-3.6,1.9-6.43,1.9
		C258.41,149.98,258.08,149.98,257.73,149.96z M261.55,113.9c-0.68-0.68-1.02-1.48-1.02-2.41c0-0.94,0.34-1.75,1.02-2.41
		c0.68-0.66,1.51-1,2.5-1s1.82,0.33,2.49,1c0.67,0.67,1.01,1.47,1.01,2.41c0,0.93-0.34,1.73-1.01,2.41
		c-0.67,0.68-1.5,1.02-2.49,1.02S262.23,114.58,261.55,113.9z"/>
	<path d="M271.9,109.67h6.57v32.37h-6.57V109.67z M277.66,127.62h0.94l8.12-9.62h7.42l-11.1,12.65h-1.46l-3.93,4.33V127.62z
		 M279.62,131.43l4.15-5l10.83,15.61h-7.56L279.62,131.43z"/>
	<path d="M300.01,141.04c-1.78-0.99-3.16-2.43-4.14-4.31c-0.98-1.88-1.47-4.12-1.47-6.72v-0.04c0-2.59,0.5-4.81,1.49-6.67
		c0.99-1.86,2.38-3.29,4.16-4.3c1.78-1,3.87-1.5,6.26-1.5c2.41,0,4.5,0.5,6.29,1.49c1.79,1,3.17,2.42,4.16,4.28
		c0.99,1.86,1.48,4.09,1.48,6.7v0.04c0,2.62-0.49,4.86-1.47,6.73c-0.98,1.87-2.36,3.3-4.14,4.3c-1.78,1-3.88,1.49-6.3,1.49
		C303.89,142.54,301.79,142.04,300.01,141.04z M309.11,136.54c0.78-0.58,1.38-1.41,1.81-2.51s0.64-2.43,0.64-4v-0.04
		c0-1.54-0.22-2.86-0.65-3.96c-0.43-1.1-1.04-1.94-1.83-2.51c-0.79-0.58-1.71-0.86-2.77-0.86c-1.05,0-1.96,0.29-2.75,0.87
		c-0.79,0.58-1.39,1.42-1.83,2.51c-0.43,1.09-0.65,2.41-0.65,3.95v0.04c0,1.57,0.21,2.9,0.64,4s1.03,1.94,1.83,2.51
		c0.79,0.58,1.73,0.86,2.8,0.86C307.42,137.4,308.34,137.11,309.11,136.54z"/>
	<path d="M318.78,118h7.02l5.02,18.26h0.13l4.96-18.26h6.84l-8.25,24.05h-7.4L318.78,118z"/>
	<path d="M349.17,141.57c-1.56-0.64-2.78-1.54-3.65-2.68c-0.87-1.14-1.39-2.47-1.57-3.98l-0.02-0.2h6.39l0.04,0.2
		c0.21,0.94,0.68,1.68,1.41,2.2c0.73,0.52,1.75,0.79,3.05,0.79c0.84,0,1.55-0.1,2.13-0.3c0.58-0.2,1.03-0.49,1.36-0.86
		c0.32-0.37,0.48-0.82,0.48-1.35v-0.02c0-0.64-0.23-1.16-0.7-1.55c-0.46-0.39-1.29-0.71-2.47-0.96l-4.08-0.87
		c-2.33-0.48-4.09-1.3-5.27-2.47c-1.18-1.17-1.77-2.65-1.77-4.44v-0.02c0-1.54,0.41-2.87,1.24-3.99s2-1.99,3.52-2.61
		c1.52-0.62,3.29-0.93,5.33-0.93c2.12,0,3.93,0.34,5.42,1.02c1.49,0.68,2.63,1.6,3.43,2.75c0.8,1.15,1.22,2.43,1.27,3.84v0.22h-6.03
		l-0.02-0.18c-0.11-0.85-0.5-1.57-1.2-2.14c-0.7-0.58-1.65-0.86-2.86-0.86c-0.75,0-1.4,0.11-1.95,0.31
		c-0.55,0.21-0.98,0.5-1.28,0.87c-0.3,0.37-0.45,0.82-0.45,1.35v0.02c0,0.61,0.24,1.13,0.72,1.55c0.48,0.42,1.32,0.76,2.53,1.01
		l4.08,0.87c2.53,0.52,4.34,1.31,5.44,2.36c1.1,1.05,1.65,2.45,1.65,4.22v0.02c0,1.57-0.45,2.94-1.35,4.11
		c-0.9,1.17-2.14,2.07-3.71,2.73c-1.58,0.65-3.4,0.98-5.46,0.98C352.62,142.54,350.73,142.21,349.17,141.57z"/>
	<path d="M368.78,109.67h6.57v32.37h-6.57V109.67z M374.55,127.62h0.94l8.12-9.62h7.42l-11.1,12.65h-1.46l-3.93,4.33V127.62z
		 M376.5,131.43l4.15-5l10.83,15.61h-7.56L376.5,131.43z"/>
	<path d="M394.21,113.9c-0.68-0.68-1.02-1.48-1.02-2.41c0-0.94,0.34-1.75,1.02-2.41c0.68-0.66,1.51-1,2.5-1s1.82,0.33,2.49,1
		c0.67,0.67,1.01,1.47,1.01,2.41c0,0.93-0.34,1.73-1.01,2.41c-0.67,0.68-1.5,1.02-2.49,1.02S394.89,114.58,394.21,113.9z
		 M393.41,118h6.57v24.05h-6.57V118z"/>
	<g>
		<path class="st4" d="M426,128.48c0-2.73,3.56-4.94,7.95-4.94c4.39,0,7.95,2.21,7.95,4.94c0,2.73-3.56,4.94-7.95,4.94
			C429.56,133.42,426,131.21,426,128.48z M412.41,126.91c0,9.39,9.64,17,21.53,17c11.89,0,21.53-7.61,21.53-17
			c0-9.39-9.64-17-21.53-17C422.05,109.91,412.41,117.52,412.41,126.91z"/>
		<path class="st5" d="M426,122.55c0-0.89,0.95-1.51,1.61-2.23c0.48-0.53,0.85-1.9,1.6-2.28c1.37-0.7,2.59,1.78,4.52,1.78
			c0.99,0,3.05-1.75,3.93-1.55c1.47,0.35,0.83,1.28,1.73,2.06c0.94,0.81,2.51,1.15,2.51,2.23c0,2.73-1.75,4.94-7.95,4.94
			C427.75,127.49,426,125.28,426,122.55z M412.41,122.33c0,1.37,0.17,2.68,0.5,3.91c0.43,1.62,0.7,4.47,1.68,5.81
			c0.49,0.66,1.55-0.24,2.41-0.24c1.6,0,1.88,3.49,3.78,3.49c2.86,0,1.51,2.4,5.47,2.4c2.12,0,3.03-1.96,4.12-1.96
			c2.74,0,2.6,3.66,5.21,3.66c2.73,0,2.59-4.32,5.07-4.32c2.42,0,2.93,2.23,4.83,2.23c2.02,0,1.51-6.6,3.75-6.6
			c2.58,0,4.02-1.02,4.56-1.97c1.08-1.9,1.68-4.04,1.68-6.38c0-7.6-9.64-14.31-21.53-14.31S412.41,114.73,412.41,122.33z"/>
		<path class="st6" d="M440.06,130.89l-4.13,2.17c-0.67,0.35-1.26-0.76-0.59-1.11l4.13-2.17
			C440.13,129.42,440.72,130.54,440.06,130.89z"/>
		<path class="st6" d="M447.83,117.18l-4.41-1.54c-0.71-0.25-0.3-1.44,0.41-1.19l4.41,1.54
			C448.95,116.24,448.54,117.43,447.83,117.18z"/>
		<path class="st7" d="M423.53,126.76l-4.43,1.49c-0.71,0.24-1.12-0.95-0.4-1.19l4.43-1.49
			C423.84,125.33,424.24,126.52,423.53,126.76z"/>
		<path class="st7" d="M431.7,114.21l-4.34-1.73c-0.7-0.28-0.24-1.45,0.46-1.17l4.34,1.73C432.87,113.32,432.41,114.49,431.7,114.21
			z"/>
		<path class="st8" d="M420.04,122.3l-4.2-2.06c-0.68-0.33-0.13-1.46,0.55-1.13l4.2,2.06C421.27,121.5,420.72,122.63,420.04,122.3z"
			/>
		<path class="st8" d="M451.92,120.76l-4.43,1.49c-0.71,0.24-1.12-0.95-0.4-1.19l4.43-1.49
			C452.23,119.33,452.64,120.52,451.92,120.76z"/>
		<path class="st9" d="M429.23,131.99l-4.67,0.2c-0.75,0.03-0.81-1.22-0.06-1.26l4.67-0.2C429.92,130.7,429.98,131.96,429.23,131.99
			z"/>
		<path class="st9" d="M441.69,111.56l-4.49,1.29c-0.72,0.21-1.07-1-0.35-1.21l4.49-1.29C442.06,110.14,442.41,111.35,441.69,111.56
			z"/>
		<path class="st10" d="M444.42,126.55l4.66,0.21c0.75,0.03,0.69,1.29-0.07,1.26l-4.66-0.21
			C443.6,127.78,443.67,126.52,444.42,126.55z"/>
		<path class="st10" d="M424.34,115.42l-4.52,1.19c-0.73,0.19-1.04-1.03-0.31-1.22l4.52-1.19
			C424.76,114.01,425.07,115.23,424.34,115.42z"/>
	</g>
</g>
<g>
</g>
<g>
</g>
<g>
</g>
<g>
</g>
<g>
</g>
</svg>
